<svg xmlns="http://www.w3.org/2000/svg" width="1102" height="529" viewBox="0 0 1102 529" version="1.1"><path d="M 299 260.937 L 299 416 320 416 L 341 416 341 282.500 L 341 149 391.750 149.015 C 433.445 149.027, 443.641 149.299, 448.897 150.537 C 452.415 151.367, 458.392 153.673, 462.179 155.663 C 465.966 157.653, 471.461 161.679, 474.391 164.609 C 477.321 167.539, 481.344 173.029, 483.331 176.810 C 485.318 180.591, 487.651 186.343, 488.516 189.592 C 489.414 192.969, 490.093 199.570, 490.100 205 C 490.106 210.472, 489.444 217.044, 488.538 220.500 C 487.672 223.800, 485.558 229.307, 483.838 232.738 C 482.119 236.170, 478.355 241.570, 475.473 244.738 C 472.591 247.907, 467.689 252.028, 464.579 253.895 C 461.470 255.762, 455.905 258.182, 452.213 259.274 C 446.327 261.014, 441.588 261.318, 413.750 261.741 L 382 262.224 382 283.112 L 382 304 409.622 304 C 429.484 304, 440.229 303.561, 447.872 302.436 C 453.717 301.575, 462.550 299.525, 467.500 297.880 C 472.450 296.234, 479.425 293.291, 483 291.338 C 486.575 289.386, 492.527 285.551, 496.227 282.816 C 499.927 280.082, 505.061 275.517, 507.635 272.672 C 510.210 269.827, 514.339 264.389, 516.813 260.586 C 519.286 256.783, 522.830 249.942, 524.689 245.382 C 526.548 240.823, 529 232.909, 530.139 227.796 C 531.673 220.911, 532.210 214.999, 532.209 205 C 532.208 196.196, 531.625 188.756, 530.535 183.611 C 529.615 179.272, 527.529 172.040, 525.900 167.538 C 524.271 163.037, 520.971 156.012, 518.566 151.927 C 516.162 147.842, 511.717 141.657, 508.690 138.182 C 505.663 134.707, 500.153 129.447, 496.446 126.493 C 492.739 123.539, 487.185 119.793, 484.103 118.169 C 481.021 116.544, 475.193 114.035, 471.150 112.593 C 467.108 111.151, 460.133 109.235, 455.650 108.335 C 448.668 106.934, 436.857 106.640, 373.250 106.286 L 299 105.873 299 260.937 M 661.081 108.250 C 660.603 109.487, 655.044 122.875, 648.727 138 C 642.411 153.125, 633.085 175.625, 628.004 188 C 622.922 200.375, 610.092 231.650, 599.492 257.500 C 588.892 283.350, 575.162 316.650, 568.982 331.500 C 562.801 346.350, 552.627 371.071, 546.372 386.436 C 540.117 401.800, 535 414.746, 535 415.204 C 535 415.662, 545.349 415.916, 557.998 415.768 L 580.996 415.500 595.869 378.500 C 604.049 358.150, 618.720 321.700, 628.472 297.500 C 638.223 273.300, 650.387 243.150, 655.501 230.500 C 660.616 217.850, 669.155 196.925, 674.478 184 C 679.800 171.075, 684.505 160.137, 684.933 159.694 C 685.361 159.251, 686.216 160.151, 686.833 161.694 C 687.449 163.237, 694.681 181.150, 702.903 201.500 C 711.125 221.850, 723.285 251.539, 729.926 267.475 C 736.567 283.411, 742 296.686, 741.999 296.975 C 741.998 297.264, 723.995 297.465, 701.992 297.423 C 664.352 297.351, 662.060 297.448, 663.243 299.063 C 663.934 300.008, 672.825 309.594, 683 320.367 L 701.500 339.953 730.528 339.976 L 759.555 340 771.463 369.250 C 778.013 385.337, 785.028 402.325, 787.052 407 L 790.732 415.500 813.366 415.769 C 825.815 415.917, 836 415.799, 836 415.508 C 836 415.217, 833.117 408.121, 829.594 399.740 C 826.071 391.358, 817.790 371.225, 811.192 355 C 804.595 338.775, 792.436 309.075, 784.173 289 C 775.911 268.925, 763.092 237.875, 755.688 220 C 748.285 202.125, 736.946 174.675, 730.492 159 C 724.038 143.325, 716.470 124.987, 713.674 118.250 L 708.590 106 685.270 106 C 662.011 106, 661.948 106.006, 661.081 108.250 M 218.500 167.584 C 213 170.643, 202.200 176.563, 194.500 180.739 C 186.800 184.916, 174.875 191.328, 168 194.989 C 161.125 198.650, 144.250 207.629, 130.500 214.943 C 116.750 222.256, 99.875 231.278, 93 234.992 C 86.125 238.706, 76.786 243.715, 72.247 246.122 L 63.994 250.500 64.247 268.975 L 64.500 287.450 77 293.997 C 83.875 297.598, 102.100 307.233, 117.500 315.409 C 132.900 323.584, 161.475 338.808, 181 349.239 C 200.525 359.669, 219.313 369.755, 222.750 371.651 L 229 375.098 228.986 352.799 L 228.972 330.500 221.236 326.388 C 216.981 324.126, 200 315.033, 183.500 306.182 C 167 297.331, 144.787 285.438, 134.138 279.753 C 123.490 274.068, 114.819 268.986, 114.871 268.459 C 114.922 267.931, 127.685 260.730, 143.232 252.456 C 158.780 244.182, 178.925 233.425, 188 228.552 C 197.075 223.678, 210.012 216.799, 216.750 213.265 L 229 206.839 229 184.419 C 229 172.089, 228.887 162.005, 228.750 162.011 C 228.613 162.017, 224 164.524, 218.500 167.584 M 862 184.351 L 862 206.772 892.250 222.815 C 908.888 231.639, 934.588 245.321, 949.362 253.219 C 964.136 261.118, 976.233 268.012, 976.245 268.539 C 976.256 269.066, 971.819 271.887, 966.383 274.808 C 960.947 277.729, 939.850 288.961, 919.500 299.768 C 899.150 310.576, 877.888 321.820, 872.250 324.755 L 862 330.093 862 352.046 C 862 364.121, 862.374 374, 862.832 374 C 863.289 374, 875.327 367.776, 889.582 360.169 C 903.837 352.561, 936.875 334.945, 963 321.021 C 989.125 307.098, 1013.875 293.842, 1018 291.565 L 1025.500 287.424 1025.767 268.962 L 1026.035 250.500 979.767 225.352 C 954.320 211.521, 918.425 192.120, 900 182.238 C 881.575 172.356, 865.487 163.744, 864.250 163.100 L 862 161.930 862 184.351" stroke="none" fill="#4c4d4d" fill-rule="evenodd" data-index="0" style="visibility: visible; opacity: 1; fill: rgb(255, 255, 255);"></path></svg>