<svg xmlns="http://www.w3.org/2000/svg" width="1000" height="1000" viewBox="0 0 1000 1000" version="1.1"><path d="M 0 500.001 L 0 1000.002 500.250 999.751 L 1000.500 999.500 1000.751 499.750 L 1001.002 0 500.501 0 L 0 0 0 500.001 M 0.496 500.500 C 0.496 775.500, 0.610 887.851, 0.750 750.168 C 0.890 612.486, 0.890 387.486, 0.750 250.168 C 0.610 112.851, 0.496 225.500, 0.496 500.500 M 461 11.130 C 305.548 23.739, 166.524 108.484, 83.588 241.188 C 41.534 308.478, 17.089 383.771, 10.923 465 C 9.412 484.904, 10.264 534.664, 12.429 553 C 21.246 627.666, 44.320 695.219, 81.770 756 C 143.068 855.487, 237.364 930.095, 347 965.852 C 397.788 982.417, 445.786 989.989, 500 989.989 C 553.215 989.989, 600.788 982.654, 649.646 966.916 C 790.153 921.658, 903.169 815.619, 956.506 679 C 979.304 620.607, 990.010 563.077, 989.994 499.050 C 989.973 409.903, 966.618 325.010, 921.204 249 C 845.083 121.595, 716.164 35.661, 569.500 14.564 C 539.881 10.304, 490.467 8.740, 461 11.130 M 473.500 20.064 C 388.906 24.686, 306.496 51.910, 235.593 98.656 C 190.329 128.497, 147.750 168.632, 114.732 212.576 C 7.932 354.719, -10.620 547.192, 66.931 708.500 C 100.060 777.407, 150.081 838.075, 212.721 885.320 C 310.047 958.727, 436.366 992.136, 559.155 976.947 C 699.991 959.526, 825.471 880.950, 903.209 761.500 C 964.708 667.002, 990.857 553.292, 976.947 440.845 C 966.722 358.189, 934.641 278.292, 885.345 212.721 C 858.272 176.709, 823.199 141.612, 787.424 114.732 C 698.316 47.780, 586.023 13.917, 473.500 20.064 M 446.500 58.949 C 420.255 64.666, 403.167 86.811, 405.325 112.309 C 407.203 134.498, 421.219 150.315, 443.688 155.603 C 453.660 157.950, 463.988 157.010, 476.946 152.575 C 482.692 150.609, 488.639 149, 490.162 149 C 492.816 149, 493.078 148.531, 496.466 137.678 C 500.351 125.233, 500.399 125, 499.095 125 C 498.598 125, 496.773 127.512, 495.041 130.582 C 488.195 142.712, 479.502 149.128, 467.359 151.012 C 458.247 152.426, 447.917 150.438, 440.868 145.915 C 415.522 129.651, 411.328 86.030, 433.574 70.054 C 440.163 65.322, 448.193 62.791, 457 62.671 C 468.657 62.512, 476.501 66.847, 485.636 78.500 C 487.360 80.700, 489.106 82.180, 489.514 81.789 C 489.922 81.397, 489.636 76.279, 488.878 70.414 L 487.500 59.750 482.500 59.506 C 458.365 58.331, 449.939 58.200, 446.500 58.949 M 551.250 61.517 C 532.057 65.686, 516.719 80.588, 512.954 98.723 C 512.307 101.837, 511.959 108.522, 512.180 113.578 C 512.537 121.733, 513.001 123.618, 516.294 130.280 C 524.928 147.750, 547.191 160.195, 567.083 158.670 C 596.784 156.393, 619.617 129.370, 614.994 101.966 C 610.128 73.116, 581.495 54.946, 551.250 61.517 M 555 65.616 C 534.155 71.157, 521.613 97.216, 527.875 121.976 C 531.401 135.922, 538.727 145.675, 549.784 151.144 C 553.767 153.114, 556.054 153.479, 564.500 153.488 C 573.727 153.499, 574.914 153.271, 579.855 150.534 C 600.182 139.275, 607.672 104.887, 594.642 82.652 C 586.740 69.168, 569.503 61.761, 555 65.616 M 647.338 80.262 C 646.959 80.875, 647.505 81.854, 648.551 82.438 C 649.596 83.022, 651.973 84.966, 653.833 86.757 C 656.412 89.241, 657.075 90.567, 656.628 92.348 C 656.305 93.632, 648.495 109.941, 639.271 128.591 C 627.025 153.350, 621.873 162.804, 620.178 163.628 C 617.989 164.691, 615.866 164.463, 609.250 162.451 C 607.677 161.973, 607.006 162.178, 607.021 163.133 C 607.049 164.918, 653.611 187.437, 661.460 189.462 C 664.738 190.308, 671.488 190.991, 676.460 190.979 C 695.786 190.934, 711.231 181.428, 719.648 164.397 C 722.679 158.266, 723.414 155.560, 723.783 149.186 C 725.112 126.235, 714.495 111.311, 687 97.481 C 667.409 87.627, 647.995 79.199, 647.338 80.262 M 652.445 131.625 C 642.300 152.319, 634 169.851, 634 170.585 C 634 174.740, 650.423 183.071, 662.380 184.981 C 680.774 187.919, 696.908 178.594, 706.057 159.735 C 711.075 149.390, 712.733 140.104, 711.122 131.360 C 708.382 116.488, 701.667 108.553, 684.330 99.702 C 678.187 96.566, 672.650 94, 672.026 94 C 671.401 94, 662.590 110.931, 652.445 131.625 M 294.221 109.169 C 290.602 111.265, 289.231 112.583, 289.860 113.363 C 291.424 115.302, 304.397 200.280, 303.609 203.423 C 303.218 204.981, 301.543 207.611, 299.887 209.267 C 298.232 210.922, 297.242 212.635, 297.688 213.072 C 298.919 214.278, 328.894 197.887, 328.298 196.334 C 327.904 195.308, 327.242 195.340, 325.007 196.496 C 320.726 198.710, 314.773 199.359, 312.857 197.820 C 310.467 195.900, 305.417 164.124, 307.230 162.412 C 309.310 160.449, 329.909 149.801, 330.925 150.165 C 331.440 150.349, 337.293 155.416, 343.931 161.423 C 353.549 170.129, 356 172.883, 356 174.986 C 356 177.702, 353.005 181.079, 347.643 184.411 C 345.769 185.576, 345.125 186.525, 345.771 187.171 C 346.774 188.174, 383 169.582, 383 168.063 C 383 167.651, 380.149 167.356, 376.664 167.407 C 368.931 167.520, 371.854 169.754, 331.737 133.082 C 315.442 118.187, 301.523 106.025, 300.805 106.056 C 300.087 106.087, 297.125 107.488, 294.221 109.169 M 299.982 123.576 C 299.948 127.092, 304.275 152.485, 305.058 153.364 C 305.843 154.245, 324 145.218, 324 143.946 C 324 143.374, 312.778 132.892, 302.250 123.631 C 300.048 121.694, 300 121.693, 299.982 123.576 M 758.774 139.559 C 758.467 139.867, 759.742 142.387, 761.607 145.160 C 766.993 153.162, 769.341 149.091, 737.187 187.500 C 727.058 199.600, 717.672 210.512, 716.329 211.750 C 712.752 215.047, 709.135 214.580, 702.727 209.991 C 699.137 207.420, 696.886 206.375, 696.452 207.078 C 696.079 207.681, 696.163 208.544, 696.637 208.995 C 701.638 213.754, 752.756 255.988, 753.522 255.993 C 754.084 255.997, 758.349 252.175, 763 247.500 C 771.107 239.351, 772.141 236.232, 764.986 241.511 C 760.776 244.616, 755.692 246.088, 751.838 245.318 C 747.989 244.548, 726.606 226.203, 726.191 223.315 C 725.972 221.790, 729.134 217.288, 737.065 207.833 C 743.216 200.500, 748.613 194.500, 749.060 194.500 C 750.815 194.500, 769.259 210.552, 770.127 212.835 C 770.818 214.651, 770.540 216.319, 769.025 219.448 C 766.745 224.158, 766.584 225, 767.965 225 C 769.007 225, 786.969 203.991, 786.988 202.750 C 787.009 201.395, 784.861 201.964, 782.273 204 C 777.130 208.045, 772.927 205.995, 756.295 191.326 L 753.091 188.500 764.685 174.796 L 776.280 161.093 783.800 167.296 C 799.174 179.977, 800.415 181.333, 800.302 185.316 C 800.246 187.310, 799.255 190.470, 798.100 192.338 C 796.002 195.732, 795.333 199.021, 796.750 198.976 C 797.969 198.937, 810.032 181.861, 809.476 180.961 C 808.896 180.023, 760.214 139, 759.681 139 C 759.490 139, 759.082 139.252, 758.774 139.559 M 226.636 154.465 C 224.511 155.223, 221.275 156.908, 219.445 158.210 C 214.518 161.716, 185 189.038, 185 190.093 C 185 191.670, 187.622 191.075, 189.417 189.091 C 190.367 188.042, 192.491 186.625, 194.136 185.944 C 196.740 184.865, 197.475 184.960, 199.814 186.681 C 202.584 188.719, 243.853 235.400, 249.137 242.473 C 252.431 246.881, 252.365 249.275, 248.811 254.266 C 247.572 256.006, 247.117 257.517, 247.666 258.066 C 248.370 258.770, 267.121 243.444, 278.363 232.978 C 278.837 232.536, 278.928 231.693, 278.565 231.105 C 278.137 230.412, 276.494 230.926, 273.903 232.561 C 268.509 235.966, 265.108 237.169, 262.875 236.460 C 261.851 236.135, 256.450 230.643, 250.871 224.254 L 240.727 212.639 243.114 210.732 C 261.175 196.297, 262.811 194.179, 263.729 184.053 C 264.799 172.251, 258.645 160.494, 248.840 155.608 C 242.812 152.604, 233.239 152.111, 226.636 154.465 M 221.825 162.346 C 218.112 163.727, 212.004 168.114, 208.704 171.770 C 206.948 173.715, 207.243 174.145, 222.016 191.130 C 230.325 200.683, 237.469 208.624, 237.891 208.776 C 239.247 209.265, 246.414 202.971, 249.200 198.846 C 254.481 191.026, 253.800 180.479, 247.452 171.765 C 240.770 162.593, 230.908 158.968, 221.825 162.346 M 473.500 197.077 C 413.326 202.770, 357.729 224.973, 311 261.973 C 298.478 271.887, 272.055 298.106, 262.597 310 C 205.946 381.249, 184.145 472.894, 202.533 562.500 C 222.104 657.869, 289.554 740.409, 379.500 779.058 C 453.462 810.838, 536.658 812.164, 611.500 782.754 C 651.939 766.864, 687.250 743.164, 718.561 710.898 C 788.699 638.619, 817.944 537.289, 797.467 437.500 C 781.054 357.521, 731.185 286.282, 660.565 241.934 C 624.444 219.251, 583.274 204.541, 539 198.502 C 525.049 196.598, 487.249 195.776, 473.500 197.077 M 365.746 449.754 L 317 498.508 365.499 546.999 L 413.999 595.491 426.500 582.991 L 439 570.490 403 534.500 L 367 498.510 403.245 462.255 L 439.490 426 426.991 413.500 L 414.491 401.001 365.746 449.754 M 573.268 413.989 L 561.036 426.546 597.018 462.518 L 633 498.490 596.995 534.505 L 560.990 570.520 573.502 583.002 L 586.014 595.484 634.508 546.989 L 683.003 498.495 634.251 449.963 L 585.500 401.431 573.268 413.989 M 90.193 529.350 C 88.374 530.009, 85.386 532.015, 83.553 533.807 C 72.653 544.465, 80.591 563.231, 96 563.231 C 98.559 563.231, 102.028 562.520, 103.707 561.651 C 107.582 559.647, 111.828 554.635, 112.584 551.173 C 112.905 549.703, 113.359 547.889, 113.593 547.143 C 114.497 544.264, 111.689 537.454, 108.131 533.896 C 104.784 530.548, 98.809 527.903, 95 528.082 C 94.175 528.120, 92.012 528.691, 90.193 529.350 M 897.459 529.880 C 895.236 530.889, 892.210 533.150, 890.735 534.903 C 887.973 538.186, 885.654 544.745, 886.407 547.143 C 886.641 547.889, 887.095 549.703, 887.416 551.173 C 888.172 554.635, 892.418 559.647, 896.293 561.651 C 897.972 562.520, 901.441 563.231, 904 563.231 C 909.503 563.231, 913.789 561.228, 917.355 556.990 C 925.277 547.576, 921.417 533.921, 909.536 529.326 C 905.186 527.644, 902.065 527.787, 897.459 529.880 M 850.951 596.092 C 849.938 597.985, 851.289 599.653, 865.103 613.571 C 873.503 622.034, 880.123 629.210, 879.816 629.517 C 879.509 629.825, 869.948 631.345, 858.571 632.896 C 847.194 634.446, 837.416 636.184, 836.843 636.757 C 835.559 638.041, 836.689 642, 838.340 642 C 839.002 642, 849.952 640.428, 862.672 638.507 L 885.799 635.014 898.465 639.507 C 905.431 641.978, 911.535 644, 912.030 644 C 912.525 644, 913.427 643.071, 914.034 641.936 C 915.775 638.683, 913.970 637.489, 900.550 633.017 C 888.266 628.923, 888.238 628.907, 881.409 621.708 C 859.644 598.769, 854.846 594, 853.529 594 C 852.727 594, 851.567 594.941, 850.951 596.092 M 137 607.352 C 128.681 609.718, 103.545 619.202, 98.675 621.813 C 95.524 623.502, 93.009 625.835, 91.425 628.538 C 83.506 642.051, 95.733 663.640, 110.206 661.699 C 115.248 661.023, 117.458 659.020, 116.499 655.996 C 115.861 653.987, 115.339 653.830, 111.146 654.384 C 102.512 655.525, 96.341 649.797, 95.315 639.689 C 94.804 634.649, 97.397 629.880, 101.923 627.540 C 106.332 625.260, 137.115 614.257, 141.260 613.479 C 147.082 612.387, 151.779 615.275, 154.756 621.778 C 156.636 625.885, 157.102 628.202, 156.680 631.349 C 156.147 635.325, 155.174 636.563, 148.241 642.092 C 146.426 643.539, 148.506 647, 151.191 647 C 154.263 647, 159.988 642.274, 161.606 638.400 C 163.301 634.343, 163.413 626.510, 161.841 621.899 C 157.799 610.040, 147.911 604.249, 137 607.352 M 142.214 662.121 C 133.571 666.588, 124.025 671.876, 121 673.871 C 108.630 682.032, 107.818 695.913, 119.053 707.148 C 127.892 715.987, 133.060 715.360, 157.273 702.513 C 176.562 692.279, 181.263 688.764, 183.097 683.206 C 185.791 675.042, 181.627 663.081, 174.061 657.250 C 170.388 654.419, 169.077 654, 163.887 654 C 158.388 654, 156.716 654.627, 142.214 662.121 M 159.981 660.901 C 153.925 662.830, 124.230 679.437, 121.250 682.563 C 118.678 685.260, 118 686.817, 118 690.025 C 118 694.914, 120.933 701.013, 124.722 704.004 C 129.795 708.008, 135.239 706.634, 154.058 696.602 C 173.565 686.204, 177.504 682.863, 177.490 676.733 C 177.479 671.845, 174.448 665.415, 170.931 662.818 C 167.967 660.629, 163.365 659.824, 159.981 660.901 M 823.762 662.623 C 822.595 665.184, 823.206 665.871, 849.533 691.600 C 876.779 718.227, 878.853 719.801, 881.384 715.765 C 882.294 714.312, 881.419 712.968, 876.017 707.518 L 869.564 701.006 875.532 688.913 C 878.814 682.263, 881.778 676.647, 882.117 676.434 C 882.456 676.221, 886.453 676.701, 891 677.500 C 895.547 678.299, 899.656 678.712, 900.133 678.418 C 901.233 677.738, 901.270 673.285, 900.181 672.612 C 898.949 671.851, 830.823 660, 827.679 660 C 825.712 660, 824.626 660.727, 823.762 662.623 M 834 667.290 C 834 667.523, 840.898 674.272, 849.328 682.288 L 864.656 696.863 870.361 686.009 C 875.363 676.493, 875.846 675.091, 874.283 674.630 C 873.302 674.341, 864.625 672.708, 855 671 C 845.375 669.292, 836.712 667.663, 835.750 667.380 C 834.788 667.097, 834 667.056, 834 667.290 M 165.941 714.620 C 150.298 725.962, 137.194 735.725, 136.820 736.317 C 135.941 737.706, 137.133 739.858, 143.539 748.457 C 157.932 767.777, 164.193 768.590, 184.820 753.820 C 203.875 740.174, 209.016 735.889, 211.004 731.992 C 213.189 727.710, 213.609 720.731, 211.946 716.357 C 210.363 712.194, 197.098 694, 195.646 694 C 194.950 694, 181.583 703.279, 165.941 714.620 M 807.500 697.662 C 805.850 698.531, 803.439 700.201, 802.143 701.372 C 798.916 704.286, 786.992 721.465, 787.032 723.143 C 787.072 724.806, 843.596 764.395, 846.455 764.763 C 848.024 764.964, 849.976 762.908, 854.834 755.933 C 862.281 745.244, 864 741.505, 864 736 C 864 730.644, 862.001 726.204, 857.869 722.387 C 853.004 717.892, 827.212 700.010, 822.500 697.865 C 817.600 695.634, 811.502 695.552, 807.500 697.662 M 170.500 719.646 C 157.300 729.263, 146.082 737.543, 145.570 738.046 C 144.376 739.220, 150.901 748.774, 156.113 753.483 C 160.698 757.626, 165.019 758.086, 170.790 755.046 C 176.783 751.889, 202.148 732.753, 204.417 729.676 C 207.728 725.188, 207.102 719.108, 202.674 712.732 C 200.676 709.854, 198.019 706.299, 196.770 704.831 L 194.500 702.162 170.500 719.646 M 808.313 704.950 C 804.736 707.131, 794.542 720.987, 795.732 722.050 C 797.385 723.526, 844.477 756.244, 845.457 756.598 C 846.777 757.074, 856.602 742.424, 857.421 738.758 C 858.164 735.436, 856.078 730.090, 852.860 727.065 C 849.167 723.594, 822.457 705.124, 819.512 704.004 C 815.518 702.486, 811.847 702.796, 808.313 704.950 M 201 760.735 C 186.524 774.752, 175.500 786.194, 175.500 787.201 C 175.500 788.177, 181.293 795.080, 188.374 802.541 C 198.103 812.794, 201.764 816.033, 203.363 815.803 C 208.030 815.134, 206.276 812, 194.384 799.753 L 182.599 787.618 193.050 777.768 L 203.500 767.917 209.287 774.025 C 215.134 780.195, 218.122 781.319, 218.836 777.616 C 219.070 776.400, 217.176 773.715, 213.375 769.874 L 207.556 763.994 215.028 756.423 C 219.138 752.259, 223.814 747.901, 225.421 746.737 L 228.341 744.621 240.037 756.830 C 251.696 769, 253.889 770.338, 255.462 766.239 C 255.881 765.145, 254.073 762.537, 249.793 758.066 C 232.467 739.964, 228.464 736.002, 227.523 736.021 C 226.961 736.033, 215.025 747.154, 201 760.735 M 776.239 738.290 C 771.436 740.098, 766.189 744.632, 762.901 749.818 C 759.499 755.182, 759.009 762.110, 761.641 767.656 C 763.287 771.124, 788.547 795.882, 795.452 800.795 C 798.219 802.764, 800.667 803.510, 805.316 803.804 C 810.991 804.162, 811.909 803.918, 816.468 800.847 C 819.201 799.006, 822.801 795.549, 824.468 793.164 C 827.120 789.371, 827.500 787.977, 827.500 782.041 C 827.500 776.330, 827.086 774.672, 824.893 771.589 C 821.406 766.689, 796.538 743.546, 791.500 740.512 C 786.569 737.543, 780.552 736.667, 776.239 738.290 M 775.457 745.807 C 771.233 748.461, 767.295 753.378, 766.502 756.990 C 765.291 762.505, 768.857 767.501, 783.997 781.500 C 798.857 795.240, 803.622 798.363, 808.416 797.505 C 815.692 796.204, 822.645 786.736, 821.372 779.862 C 820.884 777.221, 817.827 773.657, 807.125 763.246 C 799.631 755.956, 791.845 748.830, 789.823 747.410 C 784.892 743.949, 779.392 743.335, 775.457 745.807 M 731.500 777.476 C 719.529 787.559, 715.500 791.522, 715.500 793.213 C 715.500 794.608, 716.200 795.608, 717.330 795.825 C 718.918 796.131, 721.784 794.149, 731.127 786.282 C 732.574 785.064, 735.118 787.739, 754.127 810.478 C 775.861 836.475, 777.671 838.094, 780.304 833.891 C 781.117 832.592, 777.118 827.282, 759.591 806.391 L 737.871 780.500 742.640 776.500 C 752.908 767.887, 752.586 768.262, 751.393 766.311 C 750.784 765.315, 749.659 764.387, 748.893 764.249 C 748.127 764.111, 740.300 770.063, 731.500 777.476 M 269.250 778.667 C 268.563 778.942, 268 780.159, 268 781.372 C 268 782.963, 269.949 784.960, 274.995 788.539 C 278.842 791.267, 281.812 793.984, 281.593 794.576 C 281.375 795.168, 273.358 806.418, 263.777 819.576 C 241.506 850.163, 242.469 848.656, 244.004 850.505 C 244.687 851.327, 246.010 852, 246.945 852 C 248.019 852, 255.765 842.163, 268.009 825.250 C 278.659 810.538, 287.474 798.353, 287.597 798.173 C 287.719 797.994, 291.007 800.165, 294.902 802.998 C 302.248 808.341, 305.283 808.995, 305.805 805.349 C 306.054 803.615, 302.939 800.921, 289.050 790.859 C 279.666 784.062, 271.654 778.425, 271.244 778.333 C 270.835 778.242, 269.938 778.392, 269.250 778.667 M 680.008 813.308 C 670.086 818.875, 663.384 823.246, 663.184 824.282 C 662.675 826.926, 696.897 888.005, 698.873 887.978 C 701.182 887.947, 732.222 870.596, 733.449 868.650 C 734.198 867.463, 734.024 866.595, 732.789 865.360 C 731.219 863.791, 730.177 864.207, 716.541 871.842 C 708.526 876.329, 701.639 879.996, 701.235 879.991 C 700.831 879.986, 697.486 874.487, 693.801 867.772 L 687.103 855.563 694.548 851.531 C 700.273 848.431, 701.995 846.999, 701.997 845.333 C 702.002 841.811, 699.924 841.994, 692.138 846.199 C 688.088 848.386, 684.404 849.798, 683.950 849.338 C 682.879 848.250, 671 826.951, 671 826.118 C 671 825.768, 677.544 821.887, 685.543 817.494 C 698.722 810.254, 700.058 809.272, 699.793 807.011 C 699.632 805.640, 698.825 804.413, 698 804.287 C 697.175 804.160, 689.079 808.220, 680.008 813.308 M 310.318 809.202 C 309.765 809.916, 301.995 824.347, 293.051 841.271 C 279.664 866.606, 277.007 872.304, 278.018 873.521 C 280.954 877.060, 282.770 875.255, 289.855 861.750 C 300.060 842.301, 297.416 843.517, 312.311 851.420 C 319.290 855.122, 325 858.373, 325 858.644 C 325 858.914, 321.368 865.884, 316.930 874.131 C 310.286 886.475, 309.077 889.388, 310.092 890.611 C 313.352 894.539, 314.972 892.285, 332.294 859.722 C 346.176 833.626, 348.980 827.680, 347.977 826.472 C 345.167 823.086, 343.215 824.800, 337.410 835.750 C 334.275 841.663, 330.836 847.967, 329.768 849.759 L 327.825 853.019 315.163 846.350 C 308.198 842.682, 302.350 839.566, 302.167 839.424 C 301.984 839.283, 305.043 833.208, 308.966 825.924 C 312.888 818.641, 315.963 811.741, 315.799 810.591 C 315.452 808.165, 311.833 807.248, 310.318 809.202 M 359.209 833.250 C 358.638 833.938, 352.762 849.350, 346.150 867.500 C 336.295 894.550, 334.361 900.738, 335.419 901.819 C 336.460 902.884, 361.665 912.598, 370.689 915.413 C 373.598 916.321, 375.732 912.875, 373.589 910.732 C 372.815 909.958, 365.503 906.925, 357.341 903.992 C 349.178 901.059, 342.411 898.609, 342.302 898.548 C 341.920 898.334, 351.146 873.492, 351.891 872.728 C 352.305 872.303, 355.660 873.091, 359.345 874.478 C 367.024 877.368, 369.552 877.610, 370.351 875.529 C 371.216 873.273, 368.656 871.381, 361.526 869.009 C 357.949 867.818, 354.819 866.516, 354.572 866.116 C 354.173 865.471, 362.584 841.083, 363.532 840.135 C 363.739 839.928, 370.934 842.324, 379.522 845.460 C 388.109 848.596, 395.780 850.915, 396.568 850.612 C 398.575 849.842, 398.355 846.260, 396.230 845.123 C 394.627 844.265, 361.283 832, 360.553 832 C 360.384 832, 359.779 832.563, 359.209 833.250 M 637 833.977 C 625.812 837.862, 617.493 841.697, 617.257 843.078 C 616.852 845.443, 643.652 910.476, 645.156 910.779 C 645.916 910.932, 647.352 910.463, 648.346 909.736 C 650.051 908.489, 649.808 907.547, 644.077 893.193 C 640.735 884.822, 638 877.808, 638 877.608 C 638 877.408, 640.718 876.227, 644.040 874.985 C 650.071 872.730, 650.083 872.729, 652.290 874.710 C 675.966 895.966, 682.020 899.868, 682.803 894.377 C 683.038 892.733, 680.161 889.725, 670.053 881.045 C 662.874 874.881, 657 869.712, 657 869.559 C 657 869.405, 658.563 867.623, 660.473 865.597 C 666.484 859.224, 667.094 852.259, 662.453 843 C 657.202 832.523, 649.277 829.714, 637 833.977 M 633 842.138 C 628.875 843.807, 625.358 845.313, 625.185 845.484 C 624.912 845.755, 634.823 870.971, 635.537 871.819 C 635.685 871.995, 639.285 870.690, 643.539 868.920 C 657.266 863.205, 661.057 857.675, 657.548 848.485 C 653.754 838.553, 646.499 836.676, 633 842.138 M 601.622 847.287 C 599.967 848.497, 600.224 850.143, 605.931 874.865 C 612.312 902.506, 612.913 907.334, 610.544 911.915 C 607.688 917.437, 596.916 920.477, 590.683 917.520 C 585.481 915.051, 583.878 910.851, 577.511 883 C 574.431 869.525, 571.675 857.712, 571.388 856.750 C 570.745 854.596, 566.172 854.387, 565.371 856.475 C 564.591 858.509, 576.658 910.414, 578.951 914.884 C 582.649 922.095, 587.686 925.020, 596.315 924.969 C 603.462 924.927, 611.566 921.427, 615.323 916.760 C 620.351 910.514, 620.126 906.533, 612.996 875.500 C 609.585 860.650, 606.335 847.938, 605.774 847.250 C 604.491 845.676, 603.817 845.682, 601.622 847.287 M 422.359 853.191 C 421.212 854.996, 409.209 923.200, 409.766 924.750 C 410.211 925.992, 416 926.571, 416 925.374 C 416 922.909, 421.404 894.331, 421.993 893.682 C 422.643 892.967, 432.429 894.202, 437.189 895.600 C 439.149 896.176, 441.244 893.012, 440.113 891.183 C 439.702 890.518, 435.825 889.296, 431.498 888.468 C 427.170 887.640, 423.447 886.781, 423.225 886.558 C 422.674 886.007, 427.084 860.665, 427.872 859.853 C 428.218 859.496, 435.665 860.500, 444.421 862.083 C 460.603 865.008, 463 864.914, 463 861.356 C 463 859.226, 459.817 858.273, 443.500 855.519 C 435.250 854.127, 427.305 852.739, 425.845 852.435 C 424.214 852.096, 422.870 852.388, 422.359 853.191 M 537 858.119 C 514.874 860.503, 515 860.473, 515 863.412 C 515 866.664, 516.429 866.980, 525.939 865.830 C 530.465 865.283, 534.328 864.994, 534.522 865.189 C 534.717 865.383, 536.444 880.325, 538.360 898.393 C 540.276 916.461, 542.281 931.681, 542.816 932.216 C 544.691 934.091, 547.487 932.597, 547.836 929.534 C 548.021 927.912, 546.713 912.724, 544.929 895.783 C 543.145 878.842, 541.906 864.761, 542.175 864.492 C 542.444 864.223, 546.119 863.711, 550.343 863.354 C 559.148 862.609, 561.573 861.380, 560.555 858.174 C 559.735 855.590, 560.460 855.592, 537 858.119 M 468.219 860.250 C 466.897 861.861, 464.845 915.378, 465.922 920.152 C 467.846 928.686, 472.828 933.260, 482.114 935.022 C 489.394 936.402, 497.051 934.772, 501.457 930.904 C 507.361 925.720, 507.947 922.744, 509.144 891.919 C 509.739 876.582, 509.953 863.320, 509.619 862.449 C 509.220 861.411, 508.063 860.975, 506.256 861.183 L 503.500 861.500 502.394 890.500 C 501.194 921.945, 500.864 923.685, 495.460 927.025 C 491.101 929.719, 482.651 929.694, 478.190 926.974 C 471.998 923.199, 471.712 921.176, 472.924 889.701 C 474.017 861.303, 473.835 859, 470.500 859 C 469.810 859, 468.783 859.563, 468.219 860.250" stroke="none" fill="#343434" fill-rule="evenodd" data-index="0" style="opacity: 1; visibility: visible;"></path><path d="M 461 11.130 C 305.548 23.739, 166.524 108.484, 83.588 241.188 C 41.534 308.478, 17.089 383.771, 10.923 465 C 9.412 484.904, 10.264 534.664, 12.429 553 C 21.246 627.666, 44.320 695.219, 81.770 756 C 143.068 855.487, 237.364 930.095, 347 965.852 C 397.788 982.417, 445.786 989.989, 500 989.989 C 553.215 989.989, 600.788 982.654, 649.646 966.916 C 790.153 921.658, 903.169 815.619, 956.506 679 C 979.304 620.607, 990.010 563.077, 989.994 499.050 C 989.973 409.903, 966.618 325.010, 921.204 249 C 845.083 121.595, 716.164 35.661, 569.500 14.564 C 539.881 10.304, 490.467 8.740, 461 11.130 M 473.500 20.064 C 388.906 24.686, 306.496 51.910, 235.593 98.656 C 190.329 128.497, 147.750 168.632, 114.732 212.576 C 7.932 354.719, -10.620 547.192, 66.931 708.500 C 100.060 777.407, 150.081 838.075, 212.721 885.320 C 310.047 958.727, 436.366 992.136, 559.155 976.947 C 699.991 959.526, 825.471 880.950, 903.209 761.500 C 964.708 667.002, 990.857 553.292, 976.947 440.845 C 966.722 358.189, 934.641 278.292, 885.345 212.721 C 858.272 176.709, 823.199 141.612, 787.424 114.732 C 698.316 47.780, 586.023 13.917, 473.500 20.064 M 446.500 58.949 C 420.255 64.666, 403.167 86.811, 405.325 112.309 C 407.203 134.498, 421.219 150.315, 443.688 155.603 C 453.660 157.950, 463.988 157.010, 476.946 152.575 C 482.692 150.609, 488.639 149, 490.162 149 C 492.816 149, 493.078 148.531, 496.466 137.678 C 500.351 125.233, 500.399 125, 499.095 125 C 498.598 125, 496.773 127.512, 495.041 130.582 C 488.195 142.712, 479.502 149.128, 467.359 151.012 C 458.247 152.426, 447.917 150.438, 440.868 145.915 C 415.522 129.651, 411.328 86.030, 433.574 70.054 C 440.163 65.322, 448.193 62.791, 457 62.671 C 468.657 62.512, 476.501 66.847, 485.636 78.500 C 487.360 80.700, 489.106 82.180, 489.514 81.789 C 489.922 81.397, 489.636 76.279, 488.878 70.414 L 487.500 59.750 482.500 59.506 C 458.365 58.331, 449.939 58.200, 446.500 58.949 M 551.250 61.517 C 532.057 65.686, 516.719 80.588, 512.954 98.723 C 512.307 101.837, 511.959 108.522, 512.180 113.578 C 512.537 121.733, 513.001 123.618, 516.294 130.280 C 524.928 147.750, 547.191 160.195, 567.083 158.670 C 596.784 156.393, 619.617 129.370, 614.994 101.966 C 610.128 73.116, 581.495 54.946, 551.250 61.517 M 555 65.616 C 534.155 71.157, 521.613 97.216, 527.875 121.976 C 531.401 135.922, 538.727 145.675, 549.784 151.144 C 553.767 153.114, 556.054 153.479, 564.500 153.488 C 573.727 153.499, 574.914 153.271, 579.855 150.534 C 600.182 139.275, 607.672 104.887, 594.642 82.652 C 586.740 69.168, 569.503 61.761, 555 65.616 M 647.338 80.262 C 646.959 80.875, 647.505 81.854, 648.551 82.438 C 649.596 83.022, 651.973 84.966, 653.833 86.757 C 656.412 89.241, 657.075 90.567, 656.628 92.348 C 656.305 93.632, 648.495 109.941, 639.271 128.591 C 627.025 153.350, 621.873 162.804, 620.178 163.628 C 617.989 164.691, 615.866 164.463, 609.250 162.451 C 607.677 161.973, 607.006 162.178, 607.021 163.133 C 607.049 164.918, 653.611 187.437, 661.460 189.462 C 664.738 190.308, 671.488 190.991, 676.460 190.979 C 695.786 190.934, 711.231 181.428, 719.648 164.397 C 722.679 158.266, 723.414 155.560, 723.783 149.186 C 725.112 126.235, 714.495 111.311, 687 97.481 C 667.409 87.627, 647.995 79.199, 647.338 80.262 M 652.445 131.625 C 642.300 152.319, 634 169.851, 634 170.585 C 634 174.740, 650.423 183.071, 662.380 184.981 C 680.774 187.919, 696.908 178.594, 706.057 159.735 C 711.075 149.390, 712.733 140.104, 711.122 131.360 C 708.382 116.488, 701.667 108.553, 684.330 99.702 C 678.187 96.566, 672.650 94, 672.026 94 C 671.401 94, 662.590 110.931, 652.445 131.625 M 294.221 109.169 C 290.602 111.265, 289.231 112.583, 289.860 113.363 C 291.424 115.302, 304.397 200.280, 303.609 203.423 C 303.218 204.981, 301.543 207.611, 299.887 209.267 C 298.232 210.922, 297.242 212.635, 297.688 213.072 C 298.919 214.278, 328.894 197.887, 328.298 196.334 C 327.904 195.308, 327.242 195.340, 325.007 196.496 C 320.726 198.710, 314.773 199.359, 312.857 197.820 C 310.467 195.900, 305.417 164.124, 307.230 162.412 C 309.310 160.449, 329.909 149.801, 330.925 150.165 C 331.440 150.349, 337.293 155.416, 343.931 161.423 C 353.549 170.129, 356 172.883, 356 174.986 C 356 177.702, 353.005 181.079, 347.643 184.411 C 345.769 185.576, 345.125 186.525, 345.771 187.171 C 346.774 188.174, 383 169.582, 383 168.063 C 383 167.651, 380.149 167.356, 376.664 167.407 C 368.931 167.520, 371.854 169.754, 331.737 133.082 C 315.442 118.187, 301.523 106.025, 300.805 106.056 C 300.087 106.087, 297.125 107.488, 294.221 109.169 M 299.982 123.576 C 299.948 127.092, 304.275 152.485, 305.058 153.364 C 305.843 154.245, 324 145.218, 324 143.946 C 324 143.374, 312.778 132.892, 302.250 123.631 C 300.048 121.694, 300 121.693, 299.982 123.576 M 758.774 139.559 C 758.467 139.867, 759.742 142.387, 761.607 145.160 C 766.993 153.162, 769.341 149.091, 737.187 187.500 C 727.058 199.600, 717.672 210.512, 716.329 211.750 C 712.752 215.047, 709.135 214.580, 702.727 209.991 C 699.137 207.420, 696.886 206.375, 696.452 207.078 C 696.079 207.681, 696.163 208.544, 696.637 208.995 C 701.638 213.754, 752.756 255.988, 753.522 255.993 C 754.084 255.997, 758.349 252.175, 763 247.500 C 771.107 239.351, 772.141 236.232, 764.986 241.511 C 760.776 244.616, 755.692 246.088, 751.838 245.318 C 747.989 244.548, 726.606 226.203, 726.191 223.315 C 725.972 221.790, 729.134 217.288, 737.065 207.833 C 743.216 200.500, 748.613 194.500, 749.060 194.500 C 750.815 194.500, 769.259 210.552, 770.127 212.835 C 770.818 214.651, 770.540 216.319, 769.025 219.448 C 766.745 224.158, 766.584 225, 767.965 225 C 769.007 225, 786.969 203.991, 786.988 202.750 C 787.009 201.395, 784.861 201.964, 782.273 204 C 777.130 208.045, 772.927 205.995, 756.295 191.326 L 753.091 188.500 764.685 174.796 L 776.280 161.093 783.800 167.296 C 799.174 179.977, 800.415 181.333, 800.302 185.316 C 800.246 187.310, 799.255 190.470, 798.100 192.338 C 796.002 195.732, 795.333 199.021, 796.750 198.976 C 797.969 198.937, 810.032 181.861, 809.476 180.961 C 808.896 180.023, 760.214 139, 759.681 139 C 759.490 139, 759.082 139.252, 758.774 139.559 M 226.636 154.465 C 224.511 155.223, 221.275 156.908, 219.445 158.210 C 214.518 161.716, 185 189.038, 185 190.093 C 185 191.670, 187.622 191.075, 189.417 189.091 C 190.367 188.042, 192.491 186.625, 194.136 185.944 C 196.740 184.865, 197.475 184.960, 199.814 186.681 C 202.584 188.719, 243.853 235.400, 249.137 242.473 C 252.431 246.881, 252.365 249.275, 248.811 254.266 C 247.572 256.006, 247.117 257.517, 247.666 258.066 C 248.370 258.770, 267.121 243.444, 278.363 232.978 C 278.837 232.536, 278.928 231.693, 278.565 231.105 C 278.137 230.412, 276.494 230.926, 273.903 232.561 C 268.509 235.966, 265.108 237.169, 262.875 236.460 C 261.851 236.135, 256.450 230.643, 250.871 224.254 L 240.727 212.639 243.114 210.732 C 261.175 196.297, 262.811 194.179, 263.729 184.053 C 264.799 172.251, 258.645 160.494, 248.840 155.608 C 242.812 152.604, 233.239 152.111, 226.636 154.465 M 221.825 162.346 C 218.112 163.727, 212.004 168.114, 208.704 171.770 C 206.948 173.715, 207.243 174.145, 222.016 191.130 C 230.325 200.683, 237.469 208.624, 237.891 208.776 C 239.247 209.265, 246.414 202.971, 249.200 198.846 C 254.481 191.026, 253.800 180.479, 247.452 171.765 C 240.770 162.593, 230.908 158.968, 221.825 162.346 M 473.500 197.077 C 413.326 202.770, 357.729 224.973, 311 261.973 C 298.478 271.887, 272.055 298.106, 262.597 310 C 205.946 381.249, 184.145 472.894, 202.533 562.500 C 222.104 657.869, 289.554 740.409, 379.500 779.058 C 453.462 810.838, 536.658 812.164, 611.500 782.754 C 651.939 766.864, 687.250 743.164, 718.561 710.898 C 788.699 638.619, 817.944 537.289, 797.467 437.500 C 781.054 357.521, 731.185 286.282, 660.565 241.934 C 624.444 219.251, 583.274 204.541, 539 198.502 C 525.049 196.598, 487.249 195.776, 473.500 197.077 M 365.746 449.754 L 317 498.508 365.499 546.999 L 413.999 595.491 426.500 582.991 L 439 570.490 403 534.500 L 367 498.510 403.245 462.255 L 439.490 426 426.991 413.500 L 414.491 401.001 365.746 449.754 M 573.268 413.989 L 561.036 426.546 597.018 462.518 L 633 498.490 596.995 534.505 L 560.990 570.520 573.502 583.002 L 586.014 595.484 634.508 546.989 L 683.003 498.495 634.251 449.963 L 585.500 401.431 573.268 413.989 M 90.193 529.350 C 88.374 530.009, 85.386 532.015, 83.553 533.807 C 72.653 544.465, 80.591 563.231, 96 563.231 C 98.559 563.231, 102.028 562.520, 103.707 561.651 C 107.582 559.647, 111.828 554.635, 112.584 551.173 C 112.905 549.703, 113.359 547.889, 113.593 547.143 C 114.497 544.264, 111.689 537.454, 108.131 533.896 C 104.784 530.548, 98.809 527.903, 95 528.082 C 94.175 528.120, 92.012 528.691, 90.193 529.350 M 897.459 529.880 C 895.236 530.889, 892.210 533.150, 890.735 534.903 C 887.973 538.186, 885.654 544.745, 886.407 547.143 C 886.641 547.889, 887.095 549.703, 887.416 551.173 C 888.172 554.635, 892.418 559.647, 896.293 561.651 C 897.972 562.520, 901.441 563.231, 904 563.231 C 909.503 563.231, 913.789 561.228, 917.355 556.990 C 925.277 547.576, 921.417 533.921, 909.536 529.326 C 905.186 527.644, 902.065 527.787, 897.459 529.880 M 850.951 596.092 C 849.938 597.985, 851.289 599.653, 865.103 613.571 C 873.503 622.034, 880.123 629.210, 879.816 629.517 C 879.509 629.825, 869.948 631.345, 858.571 632.896 C 847.194 634.446, 837.416 636.184, 836.843 636.757 C 835.559 638.041, 836.689 642, 838.340 642 C 839.002 642, 849.952 640.428, 862.672 638.507 L 885.799 635.014 898.465 639.507 C 905.431 641.978, 911.535 644, 912.030 644 C 912.525 644, 913.427 643.071, 914.034 641.936 C 915.775 638.683, 913.970 637.489, 900.550 633.017 C 888.266 628.923, 888.238 628.907, 881.409 621.708 C 859.644 598.769, 854.846 594, 853.529 594 C 852.727 594, 851.567 594.941, 850.951 596.092 M 137 607.352 C 128.681 609.718, 103.545 619.202, 98.675 621.813 C 95.524 623.502, 93.009 625.835, 91.425 628.538 C 83.506 642.051, 95.733 663.640, 110.206 661.699 C 115.248 661.023, 117.458 659.020, 116.499 655.996 C 115.861 653.987, 115.339 653.830, 111.146 654.384 C 102.512 655.525, 96.341 649.797, 95.315 639.689 C 94.804 634.649, 97.397 629.880, 101.923 627.540 C 106.332 625.260, 137.115 614.257, 141.260 613.479 C 147.082 612.387, 151.779 615.275, 154.756 621.778 C 156.636 625.885, 157.102 628.202, 156.680 631.349 C 156.147 635.325, 155.174 636.563, 148.241 642.092 C 146.426 643.539, 148.506 647, 151.191 647 C 154.263 647, 159.988 642.274, 161.606 638.400 C 163.301 634.343, 163.413 626.510, 161.841 621.899 C 157.799 610.040, 147.911 604.249, 137 607.352 M 142.214 662.121 C 133.571 666.588, 124.025 671.876, 121 673.871 C 108.630 682.032, 107.818 695.913, 119.053 707.148 C 127.892 715.987, 133.060 715.360, 157.273 702.513 C 176.562 692.279, 181.263 688.764, 183.097 683.206 C 185.791 675.042, 181.627 663.081, 174.061 657.250 C 170.388 654.419, 169.077 654, 163.887 654 C 158.388 654, 156.716 654.627, 142.214 662.121 M 159.981 660.901 C 153.925 662.830, 124.230 679.437, 121.250 682.563 C 118.678 685.260, 118 686.817, 118 690.025 C 118 694.914, 120.933 701.013, 124.722 704.004 C 129.795 708.008, 135.239 706.634, 154.058 696.602 C 173.565 686.204, 177.504 682.863, 177.490 676.733 C 177.479 671.845, 174.448 665.415, 170.931 662.818 C 167.967 660.629, 163.365 659.824, 159.981 660.901 M 823.762 662.623 C 822.595 665.184, 823.206 665.871, 849.533 691.600 C 876.779 718.227, 878.853 719.801, 881.384 715.765 C 882.294 714.312, 881.419 712.968, 876.017 707.518 L 869.564 701.006 875.532 688.913 C 878.814 682.263, 881.778 676.647, 882.117 676.434 C 882.456 676.221, 886.453 676.701, 891 677.500 C 895.547 678.299, 899.656 678.712, 900.133 678.418 C 901.233 677.738, 901.270 673.285, 900.181 672.612 C 898.949 671.851, 830.823 660, 827.679 660 C 825.712 660, 824.626 660.727, 823.762 662.623 M 834 667.290 C 834 667.523, 840.898 674.272, 849.328 682.288 L 864.656 696.863 870.361 686.009 C 875.363 676.493, 875.846 675.091, 874.283 674.630 C 873.302 674.341, 864.625 672.708, 855 671 C 845.375 669.292, 836.712 667.663, 835.750 667.380 C 834.788 667.097, 834 667.056, 834 667.290 M 165.941 714.620 C 150.298 725.962, 137.194 735.725, 136.820 736.317 C 135.941 737.706, 137.133 739.858, 143.539 748.457 C 157.932 767.777, 164.193 768.590, 184.820 753.820 C 203.875 740.174, 209.016 735.889, 211.004 731.992 C 213.189 727.710, 213.609 720.731, 211.946 716.357 C 210.363 712.194, 197.098 694, 195.646 694 C 194.950 694, 181.583 703.279, 165.941 714.620 M 807.500 697.662 C 805.850 698.531, 803.439 700.201, 802.143 701.372 C 798.916 704.286, 786.992 721.465, 787.032 723.143 C 787.072 724.806, 843.596 764.395, 846.455 764.763 C 848.024 764.964, 849.976 762.908, 854.834 755.933 C 862.281 745.244, 864 741.505, 864 736 C 864 730.644, 862.001 726.204, 857.869 722.387 C 853.004 717.892, 827.212 700.010, 822.500 697.865 C 817.600 695.634, 811.502 695.552, 807.500 697.662 M 170.500 719.646 C 157.300 729.263, 146.082 737.543, 145.570 738.046 C 144.376 739.220, 150.901 748.774, 156.113 753.483 C 160.698 757.626, 165.019 758.086, 170.790 755.046 C 176.783 751.889, 202.148 732.753, 204.417 729.676 C 207.728 725.188, 207.102 719.108, 202.674 712.732 C 200.676 709.854, 198.019 706.299, 196.770 704.831 L 194.500 702.162 170.500 719.646 M 808.313 704.950 C 804.736 707.131, 794.542 720.987, 795.732 722.050 C 797.385 723.526, 844.477 756.244, 845.457 756.598 C 846.777 757.074, 856.602 742.424, 857.421 738.758 C 858.164 735.436, 856.078 730.090, 852.860 727.065 C 849.167 723.594, 822.457 705.124, 819.512 704.004 C 815.518 702.486, 811.847 702.796, 808.313 704.950 M 201 760.735 C 186.524 774.752, 175.500 786.194, 175.500 787.201 C 175.500 788.177, 181.293 795.080, 188.374 802.541 C 198.103 812.794, 201.764 816.033, 203.363 815.803 C 208.030 815.134, 206.276 812, 194.384 799.753 L 182.599 787.618 193.050 777.768 L 203.500 767.917 209.287 774.025 C 215.134 780.195, 218.122 781.319, 218.836 777.616 C 219.070 776.400, 217.176 773.715, 213.375 769.874 L 207.556 763.994 215.028 756.423 C 219.138 752.259, 223.814 747.901, 225.421 746.737 L 228.341 744.621 240.037 756.830 C 251.696 769, 253.889 770.338, 255.462 766.239 C 255.881 765.145, 254.073 762.537, 249.793 758.066 C 232.467 739.964, 228.464 736.002, 227.523 736.021 C 226.961 736.033, 215.025 747.154, 201 760.735 M 776.239 738.290 C 771.436 740.098, 766.189 744.632, 762.901 749.818 C 759.499 755.182, 759.009 762.110, 761.641 767.656 C 763.287 771.124, 788.547 795.882, 795.452 800.795 C 798.219 802.764, 800.667 803.510, 805.316 803.804 C 810.991 804.162, 811.909 803.918, 816.468 800.847 C 819.201 799.006, 822.801 795.549, 824.468 793.164 C 827.120 789.371, 827.500 787.977, 827.500 782.041 C 827.500 776.330, 827.086 774.672, 824.893 771.589 C 821.406 766.689, 796.538 743.546, 791.500 740.512 C 786.569 737.543, 780.552 736.667, 776.239 738.290 M 775.457 745.807 C 771.233 748.461, 767.295 753.378, 766.502 756.990 C 765.291 762.505, 768.857 767.501, 783.997 781.500 C 798.857 795.240, 803.622 798.363, 808.416 797.505 C 815.692 796.204, 822.645 786.736, 821.372 779.862 C 820.884 777.221, 817.827 773.657, 807.125 763.246 C 799.631 755.956, 791.845 748.830, 789.823 747.410 C 784.892 743.949, 779.392 743.335, 775.457 745.807 M 731.500 777.476 C 719.529 787.559, 715.500 791.522, 715.500 793.213 C 715.500 794.608, 716.200 795.608, 717.330 795.825 C 718.918 796.131, 721.784 794.149, 731.127 786.282 C 732.574 785.064, 735.118 787.739, 754.127 810.478 C 775.861 836.475, 777.671 838.094, 780.304 833.891 C 781.117 832.592, 777.118 827.282, 759.591 806.391 L 737.871 780.500 742.640 776.500 C 752.908 767.887, 752.586 768.262, 751.393 766.311 C 750.784 765.315, 749.659 764.387, 748.893 764.249 C 748.127 764.111, 740.300 770.063, 731.500 777.476 M 269.250 778.667 C 268.563 778.942, 268 780.159, 268 781.372 C 268 782.963, 269.949 784.960, 274.995 788.539 C 278.842 791.267, 281.812 793.984, 281.593 794.576 C 281.375 795.168, 273.358 806.418, 263.777 819.576 C 241.506 850.163, 242.469 848.656, 244.004 850.505 C 244.687 851.327, 246.010 852, 246.945 852 C 248.019 852, 255.765 842.163, 268.009 825.250 C 278.659 810.538, 287.474 798.353, 287.597 798.173 C 287.719 797.994, 291.007 800.165, 294.902 802.998 C 302.248 808.341, 305.283 808.995, 305.805 805.349 C 306.054 803.615, 302.939 800.921, 289.050 790.859 C 279.666 784.062, 271.654 778.425, 271.244 778.333 C 270.835 778.242, 269.938 778.392, 269.250 778.667 M 680.008 813.308 C 670.086 818.875, 663.384 823.246, 663.184 824.282 C 662.675 826.926, 696.897 888.005, 698.873 887.978 C 701.182 887.947, 732.222 870.596, 733.449 868.650 C 734.198 867.463, 734.024 866.595, 732.789 865.360 C 731.219 863.791, 730.177 864.207, 716.541 871.842 C 708.526 876.329, 701.639 879.996, 701.235 879.991 C 700.831 879.986, 697.486 874.487, 693.801 867.772 L 687.103 855.563 694.548 851.531 C 700.273 848.431, 701.995 846.999, 701.997 845.333 C 702.002 841.811, 699.924 841.994, 692.138 846.199 C 688.088 848.386, 684.404 849.798, 683.950 849.338 C 682.879 848.250, 671 826.951, 671 826.118 C 671 825.768, 677.544 821.887, 685.543 817.494 C 698.722 810.254, 700.058 809.272, 699.793 807.011 C 699.632 805.640, 698.825 804.413, 698 804.287 C 697.175 804.160, 689.079 808.220, 680.008 813.308 M 310.318 809.202 C 309.765 809.916, 301.995 824.347, 293.051 841.271 C 279.664 866.606, 277.007 872.304, 278.018 873.521 C 280.954 877.060, 282.770 875.255, 289.855 861.750 C 300.060 842.301, 297.416 843.517, 312.311 851.420 C 319.290 855.122, 325 858.373, 325 858.644 C 325 858.914, 321.368 865.884, 316.930 874.131 C 310.286 886.475, 309.077 889.388, 310.092 890.611 C 313.352 894.539, 314.972 892.285, 332.294 859.722 C 346.176 833.626, 348.980 827.680, 347.977 826.472 C 345.167 823.086, 343.215 824.800, 337.410 835.750 C 334.275 841.663, 330.836 847.967, 329.768 849.759 L 327.825 853.019 315.163 846.350 C 308.198 842.682, 302.350 839.566, 302.167 839.424 C 301.984 839.283, 305.043 833.208, 308.966 825.924 C 312.888 818.641, 315.963 811.741, 315.799 810.591 C 315.452 808.165, 311.833 807.248, 310.318 809.202 M 359.209 833.250 C 358.638 833.938, 352.762 849.350, 346.150 867.500 C 336.295 894.550, 334.361 900.738, 335.419 901.819 C 336.460 902.884, 361.665 912.598, 370.689 915.413 C 373.598 916.321, 375.732 912.875, 373.589 910.732 C 372.815 909.958, 365.503 906.925, 357.341 903.992 C 349.178 901.059, 342.411 898.609, 342.302 898.548 C 341.920 898.334, 351.146 873.492, 351.891 872.728 C 352.305 872.303, 355.660 873.091, 359.345 874.478 C 367.024 877.368, 369.552 877.610, 370.351 875.529 C 371.216 873.273, 368.656 871.381, 361.526 869.009 C 357.949 867.818, 354.819 866.516, 354.572 866.116 C 354.173 865.471, 362.584 841.083, 363.532 840.135 C 363.739 839.928, 370.934 842.324, 379.522 845.460 C 388.109 848.596, 395.780 850.915, 396.568 850.612 C 398.575 849.842, 398.355 846.260, 396.230 845.123 C 394.627 844.265, 361.283 832, 360.553 832 C 360.384 832, 359.779 832.563, 359.209 833.250 M 637 833.977 C 625.812 837.862, 617.493 841.697, 617.257 843.078 C 616.852 845.443, 643.652 910.476, 645.156 910.779 C 645.916 910.932, 647.352 910.463, 648.346 909.736 C 650.051 908.489, 649.808 907.547, 644.077 893.193 C 640.735 884.822, 638 877.808, 638 877.608 C 638 877.408, 640.718 876.227, 644.040 874.985 C 650.071 872.730, 650.083 872.729, 652.290 874.710 C 675.966 895.966, 682.020 899.868, 682.803 894.377 C 683.038 892.733, 680.161 889.725, 670.053 881.045 C 662.874 874.881, 657 869.712, 657 869.559 C 657 869.405, 658.563 867.623, 660.473 865.597 C 666.484 859.224, 667.094 852.259, 662.453 843 C 657.202 832.523, 649.277 829.714, 637 833.977 M 633 842.138 C 628.875 843.807, 625.358 845.313, 625.185 845.484 C 624.912 845.755, 634.823 870.971, 635.537 871.819 C 635.685 871.995, 639.285 870.690, 643.539 868.920 C 657.266 863.205, 661.057 857.675, 657.548 848.485 C 653.754 838.553, 646.499 836.676, 633 842.138 M 601.622 847.287 C 599.967 848.497, 600.224 850.143, 605.931 874.865 C 612.312 902.506, 612.913 907.334, 610.544 911.915 C 607.688 917.437, 596.916 920.477, 590.683 917.520 C 585.481 915.051, 583.878 910.851, 577.511 883 C 574.431 869.525, 571.675 857.712, 571.388 856.750 C 570.745 854.596, 566.172 854.387, 565.371 856.475 C 564.591 858.509, 576.658 910.414, 578.951 914.884 C 582.649 922.095, 587.686 925.020, 596.315 924.969 C 603.462 924.927, 611.566 921.427, 615.323 916.760 C 620.351 910.514, 620.126 906.533, 612.996 875.500 C 609.585 860.650, 606.335 847.938, 605.774 847.250 C 604.491 845.676, 603.817 845.682, 601.622 847.287 M 422.359 853.191 C 421.212 854.996, 409.209 923.200, 409.766 924.750 C 410.211 925.992, 416 926.571, 416 925.374 C 416 922.909, 421.404 894.331, 421.993 893.682 C 422.643 892.967, 432.429 894.202, 437.189 895.600 C 439.149 896.176, 441.244 893.012, 440.113 891.183 C 439.702 890.518, 435.825 889.296, 431.498 888.468 C 427.170 887.640, 423.447 886.781, 423.225 886.558 C 422.674 886.007, 427.084 860.665, 427.872 859.853 C 428.218 859.496, 435.665 860.500, 444.421 862.083 C 460.603 865.008, 463 864.914, 463 861.356 C 463 859.226, 459.817 858.273, 443.500 855.519 C 435.250 854.127, 427.305 852.739, 425.845 852.435 C 424.214 852.096, 422.870 852.388, 422.359 853.191 M 537 858.119 C 514.874 860.503, 515 860.473, 515 863.412 C 515 866.664, 516.429 866.980, 525.939 865.830 C 530.465 865.283, 534.328 864.994, 534.522 865.189 C 534.717 865.383, 536.444 880.325, 538.360 898.393 C 540.276 916.461, 542.281 931.681, 542.816 932.216 C 544.691 934.091, 547.487 932.597, 547.836 929.534 C 548.021 927.912, 546.713 912.724, 544.929 895.783 C 543.145 878.842, 541.906 864.761, 542.175 864.492 C 542.444 864.223, 546.119 863.711, 550.343 863.354 C 559.148 862.609, 561.573 861.380, 560.555 858.174 C 559.735 855.590, 560.460 855.592, 537 858.119 M 468.219 860.250 C 466.897 861.861, 464.845 915.378, 465.922 920.152 C 467.846 928.686, 472.828 933.260, 482.114 935.022 C 489.394 936.402, 497.051 934.772, 501.457 930.904 C 507.361 925.720, 507.947 922.744, 509.144 891.919 C 509.739 876.582, 509.953 863.320, 509.619 862.449 C 509.220 861.411, 508.063 860.975, 506.256 861.183 L 503.500 861.500 502.394 890.500 C 501.194 921.945, 500.864 923.685, 495.460 927.025 C 491.101 929.719, 482.651 929.694, 478.190 926.974 C 471.998 923.199, 471.712 921.176, 472.924 889.701 C 474.017 861.303, 473.835 859, 470.500 859 C 469.810 859, 468.783 859.563, 468.219 860.250" stroke="none" fill="#f3f3f3" fill-rule="evenodd" data-index="1" style="opacity: 1;"></path></svg>